# xmcd
#
# Track frame offsets: 
#        150
#        13076
#        30172
#        46609
#        64633
#        82330
#        98261
#        113185
#        126274
#        142529
#
# Disc length: 2060 seconds
#
# Revision: 0
# Processed by: cddbd v1.5.2PL0 Copyright (c) Steve Scherf et al.
# Submitted via: ExactAudioCopy v0.99pb3
#
DISCID=6d080a0a
DTITLE=Power Man's Grave - Power Man's Grave 2002
DYEAR=2002
DGENRE=Country Rock
TTITLE0=Small Town Saturdaynight
TTITLE1=Drivin' My Life Away
TTITLE2=Jolene
TTITLE3=Piece Of My Heart
TTITLE4=Dust In The Botle
TTITLE5=Down At The Twist and Shout
TTITLE6=Lucky In Love
TTITLE7=It Wouldn't Hurt To Have Wings
TTITLE8=Lay Down Sally
TTITLE9=Stand By Your Man
EXTD=
EXTT0=
EXTT1=
EXTT2=
EXTT3=
EXTT4=
EXTT5=
EXTT6=
EXTT7=
EXTT8=
EXTT9=
PLAYORDER=
